# xmcd CD database file
#
# Track frame offsets:
#	183
#	14733
#	28908
#	42408
#	55608
#	70158
#	84633
#	100158
#	113058
#	125958
#	138595
#	152320
#	164583
#	177783
#	191058
#	204183
#	219033
#	233608
#	247233
#	260958
#	274533
#	287958
#	302658
#	316458
#
# Disc length: 4420 seconds
#
# Revision: 0
# Processed by: cddbd v1.5.1PL0 Copyright (c) Steve Scherf et al.
# Submitted via: CDex 1.51
#
DISCID=63114218
DTITLE=I 7 Ory, Dodds, Noone - New Orleans Kids
DYEAR=1991
DGENRE=Jazz
TTITLE0=Perdido Street Blues
TTITLE1=Gate Mounth
TTITLE2=Too Tight Blues
TTITLE3=Papa Did
TTITLE4=Mixed Salad
TTITLE5=I Can' t say
TTITLE6=Flat Food
TTITLE7=Mad Dog
TTITLE8=Mr. Jelly Lord
TTITLE9=My Baby
TTITLE10=Hot Potatoes
TTITLE11=29th and Dearborn
TTITLE12=Someday Sweetheart
TTITLE13=New Wang Wang Blues
TTITLE14=Cannon Ball Blues
TTITLE15=Four or Five Times
TTITLE16=Every Evelning
TTITLE17=My Monday Date
TTITLE18=Blues My Naughty Sweetie Gives to Me
TTITLE19=Delta Bound
TTITLE20=Way Down Yonder in New Orleans
TTITLE21=he's the Different Type of Guy
TTITLE22=The Blues Jamped a Rabbit
TTITLE23=Bump it
EXTD=YEAR: 1991
EXTT0=
EXTT1=
EXTT2=
EXTT3=
EXTT4=
EXTT5=
EXTT6=
EXTT7=
EXTT8=
EXTT9=
EXTT10=
EXTT11=
EXTT12=
EXTT13=
EXTT14=
EXTT15=
EXTT16=
EXTT17=
EXTT18=
EXTT19=
EXTT20=
EXTT21=
EXTT22=
EXTT23=
PLAYORDER=
